# File created by Blade
# Date/Time:  Wed Sep 24 19:25:39 2014
# Frame Rate: 120.000 fps
#------------------------------------------------------
:FULLY-SPECIFIED
:DEGREES
2788
root -15.810365 32.292002 -4.613271 12.212168 47.383311 -4.836782
Spine -18.801379 4.872721 16.866985
Head 13.420258 -1.042317 -3.572962
LeftShoulder -12.946601 24.512071 6.189771
LeftArm 21.117054 34.253067 -73.754941
LeftForeArm 5.832090 -0.000000 28.591528
LeftHand -25.405761 -0.000000 -5.649720
LeftHandThumb1 -26.253704 0.000000 33.147579
RightShoulder -18.363861 10.855845 -33.157655
RightArm -15.115119 33.669487 46.162885
RightForeArm 6.887755 -0.000000 120.170334
RightHand -13.618554 -0.000000 0.851971
RightHandThumb1 -24.326973 -0.000000 -32.862282
LeftUpLeg -0.889873 23.227889 4.326899
LeftLeg 31.296767 -0.000000 -0.000000
LeftFoot 40.218918 15.206678 -17.402202
LeftToeBase 32.484389 -0.000000 -0.000000
RightUpLeg -14.604460 -6.156538 14.131651
RightLeg 1.540379 -0.000000 -0.000000
RightFoot -10.602990 -23.247454 -3.825397
RightToeBase 1.860658 -0.000000 -0.000000
2789
root -15.809869 32.291049 -4.617371 12.145611 47.355921 -4.860408
Spine -18.720668 4.876266 16.911556
Head 13.415309 -0.993960 -3.546437
LeftShoulder -12.964233 24.503304 6.186660
LeftArm 21.163313 34.176003 -73.784072
LeftForeArm 5.923488 -0.000000 28.780334
LeftHand -25.538588 -0.000000 -5.474733
LeftHandThumb1 -26.253704 0.000000 33.147579
RightShoulder -18.333364 10.890976 -33.190987
RightArm -15.120608 33.711580 46.196890
RightForeArm 6.929891 -0.000000 120.176918
RightHand -13.620655 -0.000000 0.910648
RightHandThumb1 -24.326973 -0.000000 -32.862282
LeftUpLeg -0.936302 23.132624 4.326593
LeftLeg 31.554588 -0.000000 -0.000000
LeftFoot 40.109741 15.157040 -17.541475
LeftToeBase 31.601387 -0.000000 -0.000000
RightUpLeg -14.568759 -6.074251 14.109579
RightLeg 1.570229 -0.000000 -0.000000
RightFoot -10.621735 -23.279290 -3.769782
RightToeBase 1.811437 -0.000000 -0.000000
2790
root -15.807823 32.291215 -4.622950 12.093676 47.344788 -4.839810
Spine -18.636307 4.896666 16.910102
Head 13.432172 -1.009785 -3.515665
LeftShoulder -12.907636 24.470427 6.194401
LeftArm 21.185573 34.118559 -73.806331
LeftForeArm 5.893487 0.000000 28.981855
LeftHand -25.481350 -0.000000 -5.352124
LeftHandThumb1 -26.253704 0.000000 33.147579
RightShoulder -18.314399 10.917499 -33.204513
RightArm -15.155832 33.762942 46.195265
RightForeArm 6.879240 0.000000 120.197482
RightHand -13.654778 -0.000000 0.924910
RightHandThumb1 -24.326973 -0.000000 -32.862282
LeftUpLeg -1.004805 23.050936 4.313454
LeftLeg 31.953569 -0.000000 -0.000000
LeftFoot 39.897502 15.214005 -18.168116
LeftToeBase 28.431891 -0.000000 -0.000000
RightUpLeg -14.511893 -6.006906 14.053756
RightLeg 1.589481 -0.000000 -0.000000
RightFoot -10.641058 -23.324487 -3.723805
RightToeBase 1.790819 -0.000000 -0.000000
2791
root -15.808699 32.288912 -4.626147 11.993616 47.338658 -4.883426
Spine -18.534638 4.910709 16.960465
Head 13.386885 -1.022335 -3.526554
LeftShoulder -12.888325 24.422943 6.220247
LeftArm 21.197158 34.041527 -73.863945
LeftForeArm 5.935950 -0.000000 29.188067
LeftHand -25.346563 -0.000000 -5.285216
LeftHandThumb1 -26.253704 0.000000 33.147579
RightShoulder -18.295617 10.955775 -33.224419
RightArm -15.199539 33.829890 46.174193
RightForeArm 6.867639 -0.000000 120.215829
RightHand -13.670598 -0.000000 0.973947
RightHandThumb1 -24.326973 -0.000000 -32.862282
LeftUpLeg -1.059418 23.001944 4.371839
LeftLeg 32.319787 -0.000000 -0.000000
LeftFoot 40.174294 15.108917 -18.193483
LeftToeBase 27.105895 -0.000000 -0.000000
RightUpLeg -14.441379 -5.888129 14.034424
RightLeg 1.593257 -0.000000 -0.000000
RightFoot -10.662376 -23.403009 -3.640107
RightToeBase 1.720983 -0.000000 -0.000000
2792
root -15.806852 32.288989 -4.632660 11.944413 47.335245 -4.870272
Spine -18.448393 4.936393 16.972998
Head 13.361472 -1.033523 -3.523019
LeftShoulder -12.874179 24.384099 6.209743
LeftArm 21.246086 33.982888 -73.864365
LeftForeArm 6.036303 -0.000000 29.395970
LeftHand -25.393849 -0.000000 -5.284342
LeftHandThumb1 -26.253704 0.000000 33.147579
RightShoulder -18.296836 11.019124 -33.241003
RightArm -15.289834 33.926095 46.100102
RightForeArm 7.088083 -0.000000 120.273642
RightHand -13.733344 -0.000000 1.144597
RightHandThumb1 -24.326973 -0.000000 -32.862282
LeftUpLeg -1.180442 22.953834 4.372273
LeftLeg 32.868343 -0.000000 -0.000000
LeftFoot 39.803634 14.840414 -18.373026
LeftToeBase 26.370497 -0.000000 -0.000000
RightUpLeg -14.391570 -5.786352 13.974496
RightLeg 1.605452 -0.000000 -0.000000
RightFoot -10.692114 -23.468565 -3.540450
RightToeBase 1.740196 -0.000000 -0.000000
2793
root -15.808799 32.286908 -4.637762 11.834715 47.367644 -4.902924
Spine -18.318709 4.938336 17.022743
Head 13.301864 -1.068193 -3.511954
LeftShoulder -12.838486 24.309945 6.225363
LeftArm 21.264121 33.906917 -73.901614
LeftForeArm 6.108103 -0.000000 29.621349
LeftHand -25.381004 0.000000 -5.206176
LeftHandThumb1 -26.253704 0.000000 33.147579
RightShoulder -18.298723 11.067256 -33.256975
RightArm -15.366457 34.004726 46.030854
RightForeArm 7.094271 0.000000 120.316686
RightHand -13.773867 -0.000000 1.180986
RightHandThumb1 -24.326973 -0.000000 -32.862282
LeftUpLeg -1.280650 22.881912 4.437579
LeftLeg 33.433337 -0.000000 -0.000000
LeftFoot 39.840484 14.976994 -18.546855
LeftToeBase 27.825227 -0.000000 -0.000000
RightUpLeg -14.316967 -5.715606 13.955653
RightLeg 1.609501 -0.000000 -0.000000
RightFoot -10.696918 -23.524466 -3.524277
RightToeBase 1.728001 -0.000000 -0.000000
